<svg width="512" height="512" viewBox="0 0 512 512" fill="none" xmlns="http://www.w3.org/2000/svg">
<g clip-path="url(#clip0_3048_337)">
<mask id="mask0_3048_337" style="mask-type:luminance" maskUnits="userSpaceOnUse" x="0" y="0" width="512" height="512">
<path d="M512 0H0V512H512V0Z" fill="white"/>
</mask>
<g mask="url(#mask0_3048_337)">
<path d="M389.12 0H122.88C55.0152 0 0 55.0152 0 122.88V389.12C0 456.985 55.0152 512 122.88 512H389.12C456.985 512 512 456.985 512 389.12V122.88C512 55.0152 456.985 0 389.12 0Z" fill="url(#paint0_linear_3048_337)"/>
<path d="M245.694 308.926C216.282 325.906 178.673 315.829 161.692 286.417C144.711 257.005 154.789 219.397 184.201 202.416C205.921 189.876 228.797 188.777 247.849 202.64C255.025 205.489 276.221 212.607 305.477 195.767C333.611 179.475 338.762 158.548 340.104 150.199C337.294 126.52 351.79 105.657 373.751 92.9791C403.163 75.9985 440.771 86.0756 457.751 115.488C474.732 144.899 464.656 182.508 435.244 199.489C415.023 211.163 389.571 214.618 370.969 203.224C363.067 200.213 346.789 194.21 318.614 210.429C289.401 227.345 284.968 244.839 283.847 252.478C283.834 256.597 283.834 254.717 283.834 258.883C284.968 266.301 289.401 282.689 318.614 299.605C346.789 315.824 363.067 309.821 370.969 306.81C389.571 295.416 415.023 299.977 435.244 311.65C464.656 328.631 474.732 366.24 457.751 395.652C440.771 425.064 403.163 435.141 373.751 418.16C351.79 405.482 337.294 383.514 340.104 359.835C338.762 351.486 333.611 330.559 305.477 314.267C276.221 297.427 255.025 304.545 247.849 307.394C246.26 308.75 247.679 307.78 245.694 308.926Z" fill="#FC9E1C"/>
<path d="M46.002 255.57C46.002 347.67 120.663 422.331 212.763 422.331C238.73 422.331 263.31 416.396 285.223 405.808C288.992 403.987 292.682 402.028 296.287 399.938C296.72 399.686 297.153 399.433 297.584 399.178C305.931 392.389 310.158 382.037 310.158 370.439C310.158 349.99 293.581 333.413 273.132 333.413C269.623 333.413 267.333 333.901 264.117 334.813C259.706 337.687 255.038 340.201 250.156 342.313C238.732 347.254 225.028 351.097 211.79 351.097C159.905 351.097 116.738 307.93 116.738 256.045C116.738 204.16 159.905 160.993 211.79 160.993C226.5 160.993 241.526 165.479 253.922 171.507C255.977 172.506 257.989 173.577 259.957 174.718C264.351 176.557 269.175 176.467 274.237 176.467C294.686 176.467 311.263 159.89 311.263 139.441C311.263 128.148 306.207 119.14 298.235 112.349C297.588 111.962 296.939 111.58 296.287 111.202C292.412 108.956 288.438 106.86 284.374 104.925C262.676 94.5923 238.395 88.8086 212.763 88.8086C120.663 88.8086 46.002 163.471 46.002 255.57Z" fill="white"/>
</g>
</g>
<defs>
<linearGradient id="paint0_linear_3048_337" x1="0" y1="0" x2="512" y2="512" gradientUnits="userSpaceOnUse">
<stop stop-color="#1E7FD4"/>
<stop offset="1" stop-color="#1A3A6E"/>
</linearGradient>
<clipPath id="clip0_3048_337">
<rect width="512" height="512" fill="white"/>
</clipPath>
</defs>
</svg>
