<svg width="512" height="512" viewBox="0 0 512 512" fill="none" xmlns="http://www.w3.org/2000/svg">
<g clip-path="url(#clip0_3044_252)">
<mask id="mask0_3044_252" style="mask-type:luminance" maskUnits="userSpaceOnUse" x="0" y="0" width="512" height="512">
<path d="M512 0H0V512H512V0Z" fill="white"/>
</mask>
<g mask="url(#mask0_3044_252)">
<path d="M389.12 0H122.88C55.0152 0 0 55.0152 0 122.88V389.12C0 456.985 55.0152 512 122.88 512H389.12C456.985 512 512 456.985 512 389.12V122.88C512 55.0152 456.985 0 389.12 0Z" fill="url(#paint0_linear_3044_252)"/>
<path d="M246.674 303.845C220.063 319.208 186.036 310.091 170.672 283.48C155.308 256.869 164.426 222.842 191.037 207.478C210.689 196.132 231.386 195.138 248.624 207.681C255.117 210.259 274.294 216.699 300.764 201.462C326.219 186.722 330.879 167.788 332.094 160.234C329.551 138.81 342.667 119.934 362.536 108.463C389.147 93.0996 423.174 102.217 438.537 128.828C453.901 155.439 444.784 189.466 418.173 204.83C399.878 215.392 376.85 218.518 360.019 208.209C352.87 205.485 338.142 200.054 312.65 214.728C286.219 230.033 282.208 245.861 281.194 252.773C281.182 256.5 281.182 254.798 281.182 258.568C282.208 265.279 286.219 280.107 312.65 295.412C338.142 310.086 352.87 304.655 360.019 301.931C376.85 291.622 399.878 295.748 418.173 306.31C444.784 321.674 453.901 355.701 438.537 382.312C423.174 408.923 389.147 418.041 362.536 402.677C342.667 391.206 329.551 371.33 332.094 349.906C330.879 342.352 326.219 323.418 300.764 308.678C274.294 293.441 255.117 299.881 248.624 302.459C247.186 303.686 248.47 302.808 246.674 303.845Z" fill="#FC9E1C"/>
<path d="M66 255.57C66 338.899 133.551 406.45 216.88 406.45C240.375 406.45 262.614 401.081 282.44 391.501C285.85 389.853 289.188 388.081 292.45 386.189C292.842 385.962 293.234 385.733 293.624 385.502C301.176 379.36 305 369.993 305 359.5C305 340.998 290.002 326 271.5 326C268.325 326 266.254 326.442 263.344 327.267C259.353 329.867 255.13 332.142 250.712 334.052C240.376 338.523 227.977 342 216 342C169.056 342 130 302.944 130 256C130 209.056 169.056 170 216 170C229.309 170 242.904 174.059 254.12 179.512C255.979 180.416 257.8 181.385 259.58 182.418C263.556 184.081 267.92 184 272.5 184C291.002 184 306 169.002 306 150.5C306 140.282 301.425 132.133 294.213 125.988C293.628 125.638 293.04 125.292 292.45 124.95C288.944 122.918 285.349 121.022 281.672 119.271C262.041 109.922 240.072 104.689 216.88 104.689C133.551 104.689 66 172.241 66 255.57Z" fill="white"/>
</g>
</g>
<defs>
<linearGradient id="paint0_linear_3044_252" x1="0" y1="0" x2="512" y2="512" gradientUnits="userSpaceOnUse">
<stop stop-color="#1E7FD4"/>
<stop offset="1" stop-color="#1A3A6E"/>
</linearGradient>
<clipPath id="clip0_3044_252">
<rect width="512" height="512" fill="white"/>
</clipPath>
</defs>
</svg>
