<svg width="512" height="512" viewBox="0 0 512 512" fill="none" xmlns="http://www.w3.org/2000/svg">
<g clip-path="url(#clip0_3056_79)">
<mask id="mask0_3056_79" style="mask-type:luminance" maskUnits="userSpaceOnUse" x="0" y="0" width="512" height="512">
<path d="M512 0H0V512H512V0Z" fill="white"/>
</mask>
<g mask="url(#mask0_3056_79)">
<path d="M243.451 320.689C207.599 341.412 161.755 329.114 141.055 293.218C120.356 257.323 132.64 211.423 168.493 190.699C194.969 175.394 222.854 174.053 246.078 190.973C254.826 194.45 280.663 203.137 316.326 182.584C350.621 162.701 356.899 137.161 358.536 126.971C355.11 98.0724 372.781 72.6105 399.55 57.1373C435.402 36.4134 481.246 48.712 501.944 84.6077C522.644 120.503 510.361 166.402 474.508 187.127C449.86 201.374 418.835 205.591 396.159 191.685C386.527 188.011 366.684 180.685 332.339 200.478C296.729 221.123 291.325 242.474 289.959 251.797C289.943 256.825 289.943 254.529 289.943 259.614C291.325 268.667 296.729 288.668 332.339 309.313C366.684 329.107 386.527 321.781 396.159 318.107C418.835 304.201 449.86 309.767 474.508 324.014C510.361 344.738 522.644 390.637 501.944 426.533C481.246 462.429 435.402 474.727 399.55 454.003C372.781 438.53 355.11 411.719 358.536 382.82C356.899 372.631 350.621 347.091 316.326 327.208C280.663 306.655 254.826 315.342 246.078 318.819C244.141 320.474 245.871 319.29 243.451 320.689Z" fill="#FC9E1C"/>
<path d="M0 255.571C0 367.961 90.9124 459.07 203.059 459.07C234.679 459.07 264.61 451.828 291.292 438.907C295.881 436.684 300.374 434.294 304.764 431.743C305.292 431.437 305.819 431.127 306.344 430.816C316.507 422.531 321.654 409.899 321.654 395.746C321.654 370.792 301.469 350.563 276.569 350.563C272.296 350.563 269.509 351.158 265.592 352.271C260.22 355.779 254.537 358.847 248.592 361.423C234.682 367.453 217.995 372.143 201.875 372.143C138.696 372.143 86.1333 319.466 86.1333 256.15C86.1333 192.834 138.696 140.158 201.875 140.158C219.787 140.158 238.084 145.632 253.178 152.987C255.68 154.206 258.13 155.514 260.526 156.906C265.877 159.15 271.751 159.04 277.915 159.04C302.815 159.04 323 138.811 323 113.857C323 100.076 316.843 89.0844 307.136 80.7968C306.349 80.3251 305.558 79.8586 304.764 79.3973C300.046 76.6558 295.207 74.0991 290.258 71.7372C263.838 59.1282 234.272 52.0703 203.059 52.0703C90.9124 52.0703 0 143.181 0 255.571Z" fill="white"/>
</g>
</g>
<defs>
<clipPath id="clip0_3056_79">
<rect width="512" height="512" fill="white"/>
</clipPath>
</defs>
</svg>
